<svg width="21" height="20" viewBox="0 0 21 20" fill="none" xmlns="http://www.w3.org/2000/svg">
<path d="M0.5 17.0059C0.5 18.7059 1.8 20.0059 3.5 20.0059H17.5C19.2 20.0059 20.5 18.7059 20.5 17.0059V9.00586H0.5V17.0059ZM17.5 2.00586H15.5V1.00586C15.5 0.405859 15.1 0.00585938 14.5 0.00585938C13.9 0.00585938 13.5 0.405859 13.5 1.00586V2.00586H7.5V1.00586C7.5 0.405859 7.1 0.00585938 6.5 0.00585938C5.9 0.00585938 5.5 0.405859 5.5 1.00586V2.00586H3.5C1.8 2.00586 0.5 3.30586 0.5 5.00586V7.00586H20.5V5.00586C20.5 3.30586 19.2 2.00586 17.5 2.00586Z" fill="white"/>
</svg>
