<svg width="29" height="30" viewBox="0 0 29 30" fill="none" xmlns="http://www.w3.org/2000/svg">
<path d="M9.96875 26.0176C10.9698 26.0176 11.7812 25.2061 11.7812 24.2051C11.7812 23.2041 10.9698 22.3926 9.96875 22.3926C8.96773 22.3926 8.15625 23.2041 8.15625 24.2051C8.15625 25.2061 8.96773 26.0176 9.96875 26.0176Z" fill="#0A4FA4" fill-opacity="0.98"/>
<path d="M22.6562 26.0176C23.6573 26.0176 24.4688 25.2061 24.4688 24.2051C24.4688 23.2041 23.6573 22.3926 22.6562 22.3926C21.6552 22.3926 20.8438 23.2041 20.8438 24.2051C20.8438 25.2061 21.6552 26.0176 22.6562 26.0176Z" fill="#0A4FA4" fill-opacity="0.98"/>
<path d="M25.8734 7.48363C25.7461 7.3279 25.5857 7.20247 25.4039 7.11645C25.222 7.03043 25.0233 6.98598 24.8222 6.98633H7.58361L7.23641 5.01637C7.19938 4.80653 7.08961 4.61645 6.92636 4.47951C6.76311 4.34257 6.55683 4.26753 6.34375 4.26758H2.71875C2.4784 4.26758 2.24789 4.36306 2.07793 4.53301C1.90798 4.70297 1.8125 4.93348 1.8125 5.17383C1.8125 5.41418 1.90798 5.64469 2.07793 5.81464C2.24789 5.9846 2.4784 6.08008 2.71875 6.08008H5.58363L8.16984 20.7375C8.20687 20.9474 8.31664 21.1375 8.47989 21.2744C8.64314 21.4113 8.84942 21.4864 9.0625 21.4863H23.5625C23.8029 21.4863 24.0334 21.3909 24.2033 21.2209C24.3733 21.0509 24.4688 20.8204 24.4688 20.5801C24.4688 20.3397 24.3733 20.1092 24.2033 19.9393C24.0334 19.7693 23.8029 19.6738 23.5625 19.6738H9.82262L9.50316 17.8613H23.1909C23.5052 17.8609 23.8097 17.752 24.0529 17.5529C24.2961 17.3538 24.463 17.0768 24.5254 16.7687L26.1566 8.61248C26.1959 8.41509 26.1909 8.21143 26.142 8.01622C26.093 7.821 26.0013 7.63909 25.8734 7.48363Z" fill="#0A4FA4" fill-opacity="0.98"/>
</svg>
