<svg width="24" height="25" viewBox="0 0 24 25" fill="none" xmlns="http://www.w3.org/2000/svg">
<path d="M12 2.01514C10.1087 2.01514 8.25991 2.57597 6.68736 3.62671C5.11482 4.67745 3.88917 6.17091 3.16541 7.91823C2.44164 9.66554 2.25227 11.5882 2.62125 13.4432C2.99022 15.2981 3.90096 17.002 5.2383 18.3393C6.57564 19.6767 8.27951 20.5874 10.1345 20.9564C11.9894 21.3254 13.9121 21.136 15.6594 20.4122C17.4067 19.6885 18.9002 18.4628 19.9509 16.8903C21.0017 15.3177 21.5625 13.4689 21.5625 11.5776C21.5595 9.04242 20.5511 6.61189 18.7584 4.81922C16.9658 3.02655 14.5352 2.01811 12 2.01514ZM12 20.0151C10.3312 20.0151 8.69992 19.5203 7.31238 18.5932C5.92484 17.666 4.84338 16.3483 4.20477 14.8065C3.56616 13.2648 3.39907 11.5683 3.72463 9.93156C4.05019 8.29485 4.85379 6.79143 6.03379 5.61142C7.2138 4.43142 8.71722 3.62782 10.3539 3.30226C11.9906 2.9767 13.6871 3.14379 15.2289 3.7824C16.7706 4.42102 18.0884 5.50247 19.0155 6.89001C19.9427 8.27755 20.4375 9.90886 20.4375 11.5776C20.435 13.8146 19.5453 15.9593 17.9635 17.5411C16.3817 19.1229 14.237 20.0127 12 20.0151ZM8.8125 11.5776C8.8125 12.2466 9.023 12.8987 9.41417 13.4414C9.80534 13.9841 10.3574 14.39 10.992 14.6016C11.6267 14.8131 12.3118 14.8196 12.9504 14.6201C13.589 14.4207 14.1486 14.0253 14.55 13.4901C14.6396 13.3708 14.773 13.2919 14.9208 13.2709C15.0686 13.2499 15.2186 13.2885 15.338 13.3781C15.4573 13.4677 15.5362 13.6011 15.5572 13.7489C15.5782 13.8967 15.5396 14.0467 15.45 14.1661C14.9068 14.8899 14.1496 15.4246 13.2857 15.6942C12.4218 15.9639 11.495 15.955 10.6364 15.6686C9.77788 15.3823 9.03118 14.8332 8.50205 14.099C7.97293 13.3647 7.68821 12.4827 7.68821 11.5776C7.68821 10.6726 7.97293 9.79054 8.50205 9.05631C9.03118 8.32209 9.77788 7.77293 10.6364 7.48663C11.495 7.20032 12.4218 7.19136 13.2857 7.46104C14.1496 7.73071 14.9068 8.26533 15.45 8.9892C15.5396 9.10855 15.5782 9.25861 15.5572 9.40639C15.5362 9.55416 15.4573 9.68753 15.338 9.77717C15.2186 9.8668 15.0686 9.90536 14.9208 9.88435C14.773 9.86334 14.6396 9.78448 14.55 9.66514C14.1486 9.12994 13.589 8.7346 12.9504 8.53512C12.3118 8.33565 11.6267 8.34215 10.992 8.55371C10.3574 8.76526 9.80534 9.17115 9.41417 9.71387C9.023 10.2566 8.8125 10.9086 8.8125 11.5776Z" fill="white"/>
</svg>
