<svg width="179" height="179" viewBox="0 0 179 179" fill="none" xmlns="http://www.w3.org/2000/svg">
<path d="M89.5 178.354C138.653 178.354 178.5 138.507 178.5 89.3535C178.5 40.2002 138.653 0.353516 89.5 0.353516C40.3467 0.353516 0.5 40.2002 0.5 89.3535C0.5 138.507 40.3467 178.354 89.5 178.354Z" fill="#E2B5B5"/>
<path d="M111.697 56.1412C112.386 55.4038 113.214 54.8137 114.132 54.4058C115.05 53.9979 116.039 53.7805 117.041 53.7664C118.044 53.7522 119.039 53.9417 119.968 54.3236C120.896 54.7055 121.74 55.2721 122.449 55.9898C123.158 56.7075 123.717 57.5618 124.095 58.5022C124.472 59.4426 124.659 60.4501 124.645 61.465C124.631 62.4799 124.416 63.4816 124.013 64.4111C123.611 65.3405 123.028 66.1787 122.299 66.8762L100.325 89.1259C100.295 89.1553 100.272 89.1902 100.257 89.2286C100.241 89.2671 100.233 89.3083 100.233 89.3499C100.233 89.3915 100.241 89.4327 100.257 89.4712C100.272 89.5096 100.295 89.5445 100.325 89.5739L122.299 111.824C123.005 112.527 123.567 113.364 123.951 114.288C124.336 115.211 124.536 116.203 124.54 117.206C124.544 118.208 124.352 119.201 123.975 120.128C123.599 121.055 123.044 121.897 122.344 122.606C121.644 123.315 120.812 123.877 119.897 124.259C118.982 124.64 118.001 124.835 117.011 124.831C116.02 124.827 115.041 124.625 114.129 124.236C113.216 123.846 112.389 123.278 111.694 122.564L89.7195 100.314C89.6905 100.285 89.656 100.261 89.618 100.245C89.5801 100.229 89.5394 100.221 89.4983 100.221C89.4571 100.221 89.4164 100.229 89.3785 100.245C89.3405 100.261 89.306 100.285 89.277 100.314L67.302 122.564C66.6077 123.278 65.7806 123.847 64.8683 124.236C63.956 124.626 62.9765 124.828 61.9865 124.832C60.9965 124.837 60.0154 124.642 59.0999 124.261C58.1844 123.879 57.3526 123.318 56.6524 122.609C55.9522 121.9 55.3976 121.058 55.0205 120.131C54.6434 119.204 54.4512 118.211 54.4551 117.209C54.4591 116.206 54.6589 115.214 55.0433 114.291C55.4276 113.367 55.9888 112.529 56.6945 111.826L78.6695 89.5765C78.6986 89.5471 78.7217 89.5121 78.7374 89.4737C78.7532 89.4353 78.7613 89.3941 78.7613 89.3524C78.7613 89.3108 78.7532 89.2696 78.7374 89.2312C78.7217 89.1927 78.6986 89.1578 78.6695 89.1284L56.6945 66.8787C55.3067 65.4509 54.5324 63.5256 54.5403 61.5224C54.5481 59.5191 55.3374 57.6001 56.7363 56.1835C58.1351 54.7668 60.0302 53.9671 62.0088 53.9587C63.9873 53.9503 65.889 54.7339 67.2995 56.1386L89.2745 78.3883C89.3035 78.4178 89.338 78.4412 89.376 78.4571C89.4139 78.4731 89.4547 78.4813 89.4958 78.4813C89.5369 78.4813 89.5776 78.4731 89.6155 78.4571C89.6535 78.4412 89.688 78.4178 89.717 78.3883L111.697 56.1412Z" fill="#E62310"/>
</svg>
