<svg width="27" height="26" viewBox="0 0 27 26" fill="none" xmlns="http://www.w3.org/2000/svg">
<g clip-path="url(#clip0_274_13889)">
<path fill-rule="evenodd" clip-rule="evenodd" d="M4.83268 12.9945C4.83284 11.3266 5.31424 9.69425 6.21912 8.29321C7.124 6.89218 8.41392 5.782 9.93411 5.0959C11.4543 4.40979 13.1402 4.1769 14.7894 4.42516C16.4387 4.67343 17.9813 5.39231 19.2321 6.49554C20.4829 7.59877 21.3889 9.0395 21.8412 10.6448C22.2935 12.2502 22.273 13.9519 21.7822 15.5459C21.2913 17.1399 20.351 18.5584 19.0739 19.6312C17.7969 20.704 16.2374 21.3855 14.5827 21.594V15.1611H16.7493C17.0367 15.1611 17.3122 15.047 17.5154 14.8438C17.7185 14.6407 17.8327 14.3651 17.8327 14.0778C17.8327 13.7905 17.7185 13.5149 17.5154 13.3118C17.3122 13.1086 17.0367 12.9945 16.7493 12.9945H14.5827V10.8278C14.5827 10.5405 14.6968 10.2649 14.9 10.0618C15.1031 9.8586 15.3787 9.74447 15.666 9.74447H16.2077C16.495 9.74447 16.7705 9.63033 16.9737 9.42716C17.1769 9.224 17.291 8.94845 17.291 8.66113C17.291 8.37381 17.1769 8.09826 16.9737 7.8951C16.7705 7.69194 16.495 7.5778 16.2077 7.5778H15.666C14.8041 7.5778 13.9774 7.92021 13.3679 8.5297C12.7584 9.1392 12.416 9.96585 12.416 10.8278V12.9945H10.2493C9.96203 12.9945 9.68648 13.1086 9.48332 13.3118C9.28015 13.5149 9.16602 13.7905 9.16602 14.0778C9.16602 14.3651 9.28015 14.6407 9.48332 14.8438C9.68648 15.047 9.96203 15.1611 10.2493 15.1611H12.416V21.594C10.3216 21.3299 8.39557 20.3105 6.99935 18.7272C5.60313 17.1439 4.83272 15.1055 4.83268 12.9945ZM13.4993 23.8278C19.4826 23.8278 24.3327 18.9777 24.3327 12.9945C24.3327 7.01122 19.4826 2.16113 13.4993 2.16113C7.5161 2.16113 2.66602 7.01122 2.66602 12.9945C2.66602 18.9777 7.5161 23.8278 13.4993 23.8278Z" fill="white"/>
</g>
<defs>
<clipPath id="clip0_274_13889">
<rect width="26" height="26" fill="white" transform="translate(0.5 -0.00683594)"/>
</clipPath>
</defs>
</svg>
