<svg width="38" height="25" viewBox="0 0 38 25" fill="none" xmlns="http://www.w3.org/2000/svg">
<path d="M17.7724 4.61204C14.0488 5.50862 10.859 8.45313 8.93884 10.004C8.38489 9.49068 7.80109 9.0106 7.19049 8.56621C4.5206 6.61593 1.32422 6.37435 1.32422 6.37435C1.32422 6.37435 2.15911 10.1582 4.36126 12.2362C2.15911 14.315 1.32422 18.0988 1.32422 18.0988C1.32422 18.0988 4.5206 17.8572 7.19049 15.9069C7.79593 15.4664 8.37483 14.9905 8.92416 14.4817C10.8407 16.034 14.0451 18.9858 17.7724 19.8853L16.5975 23.9974C19.4928 23.5076 22.3882 21.3899 23.5528 20.4544C33.0457 20.0322 36.5703 13.9376 36.5703 12.2487C36.5703 10.6333 33.0457 4.46519 23.5814 4.04444C22.4366 3.1273 19.5171 0.993445 16.5975 0.5L17.7724 4.61204Z" fill="#0A4FA4" fill-opacity="0.98" stroke="#0A4FA4" stroke-linejoin="round"/>
</svg>
