<svg width="27" height="26" viewBox="0 0 27 26" fill="none" xmlns="http://www.w3.org/2000/svg">
<path d="M8.94935 2.16113H18.0493C21.516 2.16113 24.3327 4.9778 24.3327 8.44447V17.5445C24.3327 19.2109 23.6707 20.8091 22.4923 21.9875C21.314 23.1658 19.7158 23.8278 18.0493 23.8278H8.94935C5.48268 23.8278 2.66602 21.0111 2.66602 17.5445V8.44447C2.66602 6.77802 3.32801 5.17983 4.50636 4.00148C5.68471 2.82313 7.28291 2.16113 8.94935 2.16113ZM8.73268 4.3278C7.69834 4.3278 6.70636 4.73869 5.97497 5.47008C5.24357 6.20147 4.83268 7.19345 4.83268 8.2278V17.7611C4.83268 19.917 6.57685 21.6611 8.73268 21.6611H18.266C19.3004 21.6611 20.2923 21.2502 21.0237 20.5188C21.7551 19.7875 22.166 18.7955 22.166 17.7611V8.2278C22.166 6.07197 20.4218 4.3278 18.266 4.3278H8.73268ZM19.1868 5.9528C19.546 5.9528 19.8904 6.09547 20.1444 6.34943C20.3983 6.60338 20.541 6.94782 20.541 7.30697C20.541 7.66611 20.3983 8.01055 20.1444 8.26451C19.8904 8.51846 19.546 8.66113 19.1868 8.66113C18.8277 8.66113 18.4833 8.51846 18.2293 8.26451C17.9754 8.01055 17.8327 7.66611 17.8327 7.30697C17.8327 6.94782 17.9754 6.60338 18.2293 6.34943C18.4833 6.09547 18.8277 5.9528 19.1868 5.9528ZM13.4993 7.5778C14.9359 7.5778 16.3137 8.14848 17.3295 9.1643C18.3453 10.1801 18.916 11.5579 18.916 12.9945C18.916 14.4311 18.3453 15.8088 17.3295 16.8246C16.3137 17.8404 14.9359 18.4111 13.4993 18.4111C12.0628 18.4111 10.685 17.8404 9.66919 16.8246C8.65336 15.8088 8.08268 14.4311 8.08268 12.9945C8.08268 11.5579 8.65336 10.1801 9.66919 9.1643C10.685 8.14848 12.0628 7.5778 13.4993 7.5778ZM13.4993 9.74447C12.6374 9.74447 11.8107 10.0869 11.2013 10.6964C10.5918 11.3059 10.2493 12.1325 10.2493 12.9945C10.2493 13.8564 10.5918 14.6831 11.2013 15.2926C11.8107 15.9021 12.6374 16.2445 13.4993 16.2445C14.3613 16.2445 15.188 15.9021 15.7974 15.2926C16.4069 14.6831 16.7493 13.8564 16.7493 12.9945C16.7493 12.1325 16.4069 11.3059 15.7974 10.6964C15.188 10.0869 14.3613 9.74447 13.4993 9.74447Z" fill="white"/>
</svg>
