<svg width="37" height="36" viewBox="0 0 37 36" fill="none" xmlns="http://www.w3.org/2000/svg" color="#FF0600">
<path d="M12.6019 22.02C12.3259 22.02 12.1399 22.047 12.0439 22.074V23.841C12.1579 23.868 12.3004 23.8755 12.4969 23.8755C13.2154 23.8755 13.6579 23.5125 13.6579 22.899C13.6579 22.35 13.2769 22.02 12.6019 22.02ZM17.8324 22.038C17.5324 22.038 17.3374 22.065 17.2219 22.092V26.007C17.3374 26.034 17.5234 26.034 17.6914 26.034C18.9169 26.043 19.7149 25.368 19.7149 23.94C19.7239 22.695 18.9964 22.038 17.8324 22.038Z" fill="#FF0600"/>
<path d="M21.2012 3H9.20117C8.40552 3 7.64246 3.31607 7.07985 3.87868C6.51724 4.44129 6.20117 5.20435 6.20117 6V30C6.20117 30.7957 6.51724 31.5587 7.07985 32.1213C7.64246 32.6839 8.40552 33 9.20117 33H27.2012C27.9968 33 28.7599 32.6839 29.3225 32.1213C29.8851 31.5587 30.2012 30.7957 30.2012 30V12L21.2012 3ZM14.4482 24.285C13.9847 24.72 13.3007 24.915 12.5042 24.915C12.3497 24.9179 12.1952 24.9089 12.0422 24.888V27.027H10.7012V21.123C11.3064 21.033 11.9179 20.9919 12.5297 21C13.3652 21 13.9592 21.159 14.3597 21.4785C14.7407 21.7815 14.9987 22.278 14.9987 22.863C14.9972 23.451 14.8022 23.9475 14.4482 24.285ZM20.1587 26.3175C19.5287 26.841 18.5702 27.09 17.3987 27.09C16.6967 27.09 16.2002 27.045 15.8627 27V21.1245C16.4681 21.0365 17.0794 20.9948 17.6912 21C18.8267 21 19.5647 21.204 20.1407 21.639C20.7632 22.101 21.1532 22.8375 21.1532 23.895C21.1532 25.0395 20.7347 25.83 20.1587 26.3175ZM25.7012 22.155H23.4032V23.5215H25.5512V24.6225H23.4032V27.0285H22.0442V21.045H25.7012V22.155ZM21.2012 13.5H19.7012V6L27.2012 13.5H21.2012Z" fill="#FF0600"/>
</svg>
