<svg width="178" height="178" viewBox="0 0 178 178" fill="none" xmlns="http://www.w3.org/2000/svg">
<path d="M89 178C138.153 178 178 138.153 178 89C178 39.8467 138.153 0 89 0C39.8467 0 0 39.8467 0 89C0 138.153 39.8467 178 89 178Z" fill="#BCE2B5"/>
<path d="M137.44 55.8707C137.27 56.9581 136.723 58.003 135.776 58.7921C113.201 77.5684 96.6624 102.887 80.359 134.213C79.2967 136.253 77.1946 137.548 74.907 137.781C72.5694 138.022 70.2442 138.435 67.9691 139.024C64.8648 139.823 61.6101 138.455 60.0092 135.679C53.4773 124.377 44.9083 114.252 34.8361 105.946C33.3153 104.693 32.9921 102.503 34.0769 100.86C34.1171 100.795 34.1596 100.732 34.2022 100.667C39.9801 92.0227 52.5327 91.662 58.8241 99.9402C61.9235 104.014 65.1205 108.158 68.0069 112.824C82.4663 90.0333 106.234 62.9236 130.605 50.8645C131.986 50.1806 133.614 50.198 134.977 50.9246C136.876 51.9395 137.733 53.9689 137.44 55.8707Z" fill="#53AC64"/>
</svg>
