<svg width="27" height="26" viewBox="0 0 27 26" fill="none" xmlns="http://www.w3.org/2000/svg">
<path d="M17.1291 6.00497C16.3057 6.00484 15.5152 6.32794 14.9276 6.90476C14.3401 7.48157 14.0025 8.26599 13.9874 9.08922L13.9571 10.7955C13.9553 10.8871 13.9342 10.9773 13.8951 11.0602C13.856 11.143 13.7998 11.2167 13.7303 11.2763C13.6607 11.336 13.5793 11.3802 13.4915 11.4062C13.4036 11.4322 13.3112 11.4393 13.2204 11.4271L11.5282 11.1974C9.30416 10.8941 7.17216 9.86922 5.12574 8.16514C4.47899 11.751 5.74324 14.2351 8.79066 16.1515L10.6832 17.341C10.7732 17.3974 10.848 17.475 10.9011 17.567C10.9541 17.659 10.9838 17.7626 10.9876 17.8688C10.9913 17.9749 10.969 18.0804 10.9225 18.1759C10.8761 18.2714 10.8069 18.3541 10.7212 18.4167L8.99649 19.6766C10.0224 19.7406 10.9963 19.6951 11.8045 19.5347C16.9157 18.5142 20.3141 14.6684 20.3141 8.32439C20.3141 7.80656 19.2167 6.00497 17.1291 6.00497ZM11.8207 9.04914C11.8396 8.00486 12.1662 6.98937 12.7595 6.1298C13.3528 5.27023 14.1865 4.60479 15.1562 4.21679C16.1259 3.82879 17.1886 3.73548 18.211 3.94853C19.2335 4.16159 20.1705 4.67155 20.9045 5.41456C21.6747 5.40914 22.3302 5.60414 23.7948 4.71581C23.433 6.49247 23.2532 7.26381 22.4807 8.32439C22.4807 16.6032 17.3923 20.6289 12.2281 21.6591C8.68882 22.3655 3.53974 21.2052 2.06641 19.6647C2.81716 19.6062 5.87216 19.278 7.63799 17.9856C6.14299 16.9997 0.197656 13.5006 4.10524 4.09397C5.93932 6.23572 7.79941 7.69389 9.68441 8.46739C10.9378 8.98197 11.2466 8.97222 11.8218 9.05022" fill="white"/>
</svg>
