<svg width="27" height="28" viewBox="0 0 27 28" fill="none" xmlns="http://www.w3.org/2000/svg">
<path d="M13.5 5.14258C14.6935 5.14258 15.8381 5.61668 16.682 6.4606C17.5259 7.30451 18 8.4491 18 9.64258C18 10.8361 17.5259 11.9806 16.682 12.8246C15.8381 13.6685 14.6935 14.1426 13.5 14.1426C12.3065 14.1426 11.1619 13.6685 10.318 12.8246C9.47411 11.9806 9 10.8361 9 9.64258C9 8.4491 9.47411 7.30451 10.318 6.4606C11.1619 5.61668 12.3065 5.14258 13.5 5.14258ZM13.5 16.3926C18.4725 16.3926 22.5 18.4063 22.5 20.8926V23.1426H4.5V20.8926C4.5 18.4063 8.5275 16.3926 13.5 16.3926Z" fill="#0A4FA4" fill-opacity="0.98"/>
</svg>
